<svg width="100" height="24" viewBox="0 0 100 24" fill="none" xmlns="http://www.w3.org/2000/svg">
<path d="M0 7.76316V23.5H7.36196V16.8421H13.8037V9.57895H7.36196V8.97368C7.36196 8.49211 7.55586 8.03026 7.90102 7.68973C8.24618 7.34921 8.71432 7.15789 9.20245 7.15789H13.7975V0.5H7.36196C5.40945 0.5 3.5369 1.26522 2.15626 2.62732C0.775627 3.98943 0 5.83685 0 7.76316ZM56.135 15.7768C56.1358 15.9146 56.1089 16.0511 56.0558 16.1785C56.0028 16.3059 55.9247 16.4216 55.8259 16.519C55.7272 16.6164 55.6099 16.6935 55.4807 16.7459C55.3516 16.7982 55.2132 16.8248 55.0736 16.8239H50.9202V23.4818H56.9018C58.651 23.4818 60.3284 22.7963 61.5653 21.5761C62.8021 20.3559 63.4969 18.7009 63.4969 16.9753V0.5H56.135V15.7768ZM15.9509 23.5H23.3129V0.5H15.9509V23.5ZM26.3804 23.5H33.7423V0.5H26.3804V23.5ZM38.6503 0.5H34.6626V7.76316H38.6503V23.5H46.0123V7.76316H50V0.5H38.6503ZM66.8712 12C66.8712 15.05 68.0992 17.9751 70.2852 20.1317C72.4712 22.2884 75.4361 23.5 78.5276 23.5C79.8896 23.5 81.1104 23.4697 82.2086 23.4092V17.9316C81.638 17.9618 80.9816 17.98 80.2945 17.98C79.2387 17.98 78.2012 17.7074 77.2853 17.1892C76.3694 16.671 75.6069 15.9253 75.0736 15.0263H82.2086V9.57895H74.7546C75.229 8.5236 76.0027 7.62613 76.9824 6.99468C77.962 6.36323 79.1059 6.02474 80.2761 6.02C80.9938 6.02 81.6257 6.02001 82.1902 6.08659V0.639217C81.1043 0.560533 79.8834 0.518157 78.5092 0.518157C75.4241 0.522959 72.4667 1.73419 70.2852 3.88641C68.1037 6.03863 66.876 8.9563 66.8712 12ZM98.0859 6.02C98.8037 6.02 99.4356 6.02001 100 6.08659V0.639217C98.9141 0.560533 97.6933 0.518157 96.319 0.518157C93.2275 0.518157 90.2627 1.72976 88.0767 3.88643C85.8906 6.0431 84.6626 8.96817 84.6626 12.0182C84.6626 15.0681 85.8906 17.9932 88.0767 20.1499C90.2627 22.3066 93.2275 23.5182 96.319 23.5182C97.681 23.5182 98.9018 23.4879 100 23.4274V17.9316C99.4295 17.9618 98.773 17.98 98.0859 17.98C97.0301 17.98 95.9926 17.7074 95.0767 17.1892C94.1608 16.671 93.3983 15.9253 92.865 15.0263H100V9.57895H92.546C93.0217 8.52079 93.7983 7.62141 94.7815 6.98975C95.7648 6.35809 96.9126 6.02123 98.0859 6.02Z" fill="#C4171B"/>
</svg>
