<svg width="30" height="31" viewBox="0 0 30 31" fill="none" xmlns="http://www.w3.org/2000/svg">
<circle cx="15" cy="15.625" r="12.6558" fill="white"/>
<path d="M15 0.5C12.0333 0.5 9.13319 1.37973 6.66645 3.02796C4.19971 4.67618 2.27713 7.01886 1.14181 9.75975C0.00649929 12.5006 -0.290551 15.5166 0.288227 18.4263C0.867006 21.3361 2.29562 24.0088 4.3934 26.1066C6.49119 28.2044 9.16394 29.633 12.0737 30.2118C14.9834 30.7905 17.9994 30.4935 20.7403 29.3582C23.4811 28.2229 25.8238 26.3003 27.472 23.8335C29.1203 21.3668 30 18.4667 30 15.5C29.9954 11.5232 28.4135 7.71055 25.6015 4.89851C22.7894 2.08647 18.9768 0.504632 15 0.5V0.5ZM23.6588 10.75L15.1025 22.3612C15.0015 22.4953 14.8748 22.6078 14.7298 22.6924C14.5848 22.7769 14.4244 22.8317 14.258 22.8536C14.0916 22.8754 13.9225 22.864 13.7606 22.8198C13.5987 22.7756 13.4472 22.6996 13.315 22.5962L7.20501 17.7112C7.0768 17.6086 6.97006 17.4818 6.89088 17.338C6.8117 17.1941 6.76162 17.0361 6.74352 16.8729C6.70695 16.5433 6.8028 16.2127 7.01 15.9537C7.21721 15.6948 7.51877 15.5288 7.84837 15.4923C8.01157 15.4741 8.17674 15.4884 8.33444 15.5341C8.49215 15.5798 8.6393 15.6562 8.7675 15.7587L13.8625 19.835L21.6463 9.27125C21.74 9.13063 21.8612 9.01048 22.0027 8.91804C22.1441 8.8256 22.3028 8.76281 22.4692 8.73345C22.6357 8.70408 22.8063 8.70877 22.9708 8.74721C23.1354 8.78566 23.2904 8.85707 23.4266 8.95712C23.5628 9.05718 23.6772 9.1838 23.7631 9.32935C23.8489 9.47489 23.9044 9.63633 23.9261 9.80391C23.9478 9.97149 23.9353 10.1417 23.8893 10.3043C23.8434 10.467 23.7649 10.6186 23.6588 10.75V10.75Z" fill="#3F80FD"/>
</svg>
